<?xml version="1.0" standalone="no"?>
<!DOCTYPE svg PUBLIC "-//W3C//DTD SVG 20010904//EN"
 "http://www.w3.org/TR/2001/REC-SVG-20010904/DTD/svg10.dtd">
<svg version="1.0" xmlns="http://www.w3.org/2000/svg"
 width="625.000000pt" height="612.000000pt" viewBox="0 0 625.000000 612.000000"
 preserveAspectRatio="xMidYMid meet">

<g transform="translate(0.000000,612.000000) scale(0.100000,-0.100000)"
fill="#000000" stroke="none">
<path d="M0 3060 l0 -3060 3125 0 3125 0 0 3060 0 3060 -3125 0 -3125 0 0
-3060z m2961 2949 c39 -42 48 -93 22 -127 -23 -31 -87 -56 -110 -44 -13 8 -70
0 -117 -17 -18 -7 -16 -11 20 -51 21 -24 88 -87 148 -141 l108 -98 -1 -118
c-1 -64 1 -197 5 -296 l7 -178 346 2 346 1 189 -134 c104 -73 243 -172 310
-219 67 -47 160 -111 207 -142 76 -51 86 -61 81 -82 -2 -14 1 -53 7 -87 5 -35
20 -128 31 -208 12 -80 34 -230 50 -335 60 -391 86 -628 71 -633 -6 -2 -16
-13 -22 -24 -8 -16 -8 -19 1 -13 9 5 10 1 6 -16 -6 -20 -5 -21 4 -6 6 9 8 23
4 30 -5 8 -4 9 4 2 6 -5 15 -45 21 -88 5 -43 11 -80 13 -82 1 -2 126 -7 277
-12 l274 -8 -194 -97 -194 -96 -181 -6 -180 -5 -22 117 c-12 64 -26 151 -31
192 -14 100 -77 638 -96 820 -9 80 -22 190 -30 245 -7 55 -16 125 -20 155 l-6
55 -124 90 c-69 50 -217 157 -330 238 l-206 148 -388 -1 -388 0 -6 82 c-4 46
-7 191 -7 324 l0 241 -125 103 -125 103 0 109 c0 100 -2 109 -17 104 -10 -3
-59 -14 -109 -25 -210 -45 -450 -134 -616 -227 -118 -66 -322 -199 -398 -260
-66 -53 -420 -421 -486 -506 -48 -62 -79 -65 -123 -9 -31 38 -51 81 -51 106 0
23 174 226 296 345 165 161 198 188 380 314 360 251 820 422 1274 477 52 6 97
13 99 15 2 2 20 4 39 4 25 0 41 -8 63 -31z m639 -4 c280 -40 471 -91 709 -192
322 -136 577 -291 776 -472 33 -30 58 -60 57 -65 -2 -6 0 -8 4 -3 10 10 105
-84 97 -96 -4 -6 -1 -7 6 -2 14 8 63 -33 55 -47 -3 -5 0 -7 8 -6 7 2 12 -5 12
-14 -1 -10 2 -16 6 -13 8 5 90 -79 90 -92 -1 -5 -15 8 -33 27 -18 19 -29 31
-24 26 12 -16 8 -28 -8 -22 -8 3 -15 0 -15 -5 0 -6 9 -9 20 -6 30 8 63 -59 37
-75 -7 -4 -7 -8 -2 -8 20 0 41 20 29 28 -9 5 -9 10 0 18 10 9 16 7 25 -8 7
-11 8 -17 3 -14 -14 8 -22 -18 -11 -35 7 -11 9 -11 9 -1 0 7 5 10 11 6 8 -4 8
-9 0 -17 -14 -14 -14 -47 0 -47 5 0 7 -5 4 -10 -4 -6 -12 -7 -18 -4 -7 4 -8 3
-4 -2 5 -5 14 -9 20 -9 7 0 11 -8 9 -18 -2 -13 3 -16 26 -11 27 5 29 4 27 -18
-2 -15 2 -25 11 -25 7 0 10 5 7 11 -4 6 2 4 12 -4 10 -8 16 -10 12 -3 -4 6 -3
14 3 18 6 4 4 15 -6 31 -9 13 -19 22 -22 19 -3 -3 3 -14 13 -25 10 -11 16 -20
14 -21 -2 0 -12 -2 -22 -4 -10 -2 -17 2 -16 8 3 26 -2 38 -13 31 -6 -4 -8 -3
-5 3 4 6 -2 22 -13 34 -21 26 -26 20 -9 -14 9 -19 7 -18 -10 3 -23 28 -27 45
-9 34 7 -4 8 -3 4 4 -4 7 -3 18 1 27 6 11 19 1 53 -43 67 -85 146 -202 137
-202 -3 0 -15 16 -28 36 -16 27 -24 33 -31 22 -6 -9 -7 -6 -3 10 7 23 -10 32
-18 10 -3 -10 -8 -10 -18 -2 -8 5 -20 9 -26 8 -7 -1 -20 -2 -28 -3 -17 -1 -21
-31 -4 -31 5 0 7 6 3 13 -4 6 1 4 11 -5 17 -16 14 -55 -3 -44 -4 2 -8 -4 -8
-15 0 -10 6 -19 13 -19 7 0 13 -7 13 -15 0 -8 4 -15 8 -15 4 0 8 -8 9 -17 1
-10 3 -27 6 -38 2 -11 2 -14 0 -7 -5 13 -23 17 -23 4 0 -21 33 -72 50 -77 20
-6 36 -40 31 -64 -1 -7 2 -10 8 -6 6 3 9 0 5 -8 -3 -8 -1 -18 5 -22 6 -3 11
-12 11 -18 0 -11 -25 27 -134 199 -14 23 -26 47 -26 53 0 6 -4 11 -9 11 -5 0
-18 15 -29 33 -24 40 -127 163 -235 281 -45 49 -81 94 -79 99 1 4 -1 6 -6 3
-5 -3 -36 20 -68 50 -89 84 -345 273 -469 347 -401 237 -704 338 -1127 376
-64 6 -124 14 -132 17 -20 8 -23 132 -3 156 17 22 49 38 67 33 8 -2 98 -16
200 -30z m342 -551 c51 -26 342 -218 672 -444 108 -74 263 -187 412 -302 l101
-77 7 -62 c4 -34 5 -64 2 -67 -3 -3 -6 4 -6 16 0 11 -5 24 -12 28 -8 5 -9 2
-5 -9 4 -10 2 -16 -5 -14 -6 1 -30 -29 -54 -68 -45 -72 -53 -92 -32 -79 7 4 8
3 4 -4 -4 -7 -14 -12 -21 -12 -12 0 -12 -6 2 -35 9 -19 19 -32 22 -29 3 3 13
-43 22 -103 9 -59 20 -124 24 -144 6 -34 4 -37 -47 -76 -29 -22 -69 -57 -89
-77 l-36 -37 -6 28 c-3 15 -11 75 -18 133 -7 58 -26 211 -43 340 l-31 234
-150 113 c-138 104 -319 231 -600 421 -60 41 -120 83 -131 94 -20 18 -40 20
-310 21 l-289 2 -3 117 -3 117 298 -6 c222 -4 305 -9 325 -19z m-1508 -22 c83
-46 118 -107 119 -212 0 -68 -25 -143 -61 -184 -32 -36 -113 -66 -177 -65
-114 0 -186 44 -234 140 -51 103 -35 205 45 285 78 78 203 93 308 36z m-621
-303 c21 -26 22 -61 2 -98 -32 -62 -116 -51 -145 18 -9 24 -9 35 5 60 9 18 26
36 38 41 32 14 79 3 100 -21z m-155 -431 c48 -40 105 -86 127 -103 21 -16 91
-73 154 -125 123 -101 472 -366 581 -441 36 -24 137 -98 225 -164 164 -123
347 -255 400 -289 17 -11 93 -69 170 -130 77 -62 155 -122 173 -134 31 -23 32
-25 32 -101 0 -81 25 -275 60 -471 11 -63 32 -185 45 -270 37 -224 44 -262 49
-267 3 -3 196 -6 431 -7 l426 -1 -3 -120 -3 -120 -149 -3 c-94 -2 -155 -7
-163 -14 -12 -9 -14 -70 -12 -340 l2 -328 31 -5 c17 -3 60 -10 96 -14 36 -5
52 -9 35 -10 -16 -1 -36 -5 -44 -10 -11 -7 -9 -12 10 -21 40 -21 183 -127 202
-151 18 -21 18 -22 -1 -41 -20 -20 -20 -20 -91 25 -120 78 -116 77 -269 77
l-139 0 -7 373 c-3 204 -9 389 -12 410 l-6 37 -210 0 -210 0 -69 62 c-40 35
-68 67 -65 75 9 22 -81 591 -144 916 -33 167 -42 201 -62 217 -13 11 -79 62
-147 112 -68 51 -160 121 -205 156 -171 132 -396 301 -526 394 -74 54 -211
153 -303 221 -93 67 -181 129 -196 137 -15 9 -56 36 -92 61 -88 63 -183 129
-324 225 -66 46 -137 98 -158 116 -21 18 -43 35 -48 36 -14 6 -10 56 7 80 14
21 21 22 165 22 l150 0 87 -72z m768 -75 c80 -65 161 -131 182 -146 20 -16 40
-37 44 -48 7 -18 22 -19 484 -19 l477 0 46 -27 c47 -27 210 -140 289 -200 24
-18 50 -37 59 -42 19 -10 29 -75 68 -431 26 -239 43 -389 95 -855 16 -143 32
-295 36 -337 l6 -78 -165 0 c-149 0 -166 2 -171 18 -9 32 -64 394 -102 673
l-38 275 -81 61 c-465 353 -585 449 -585 465 0 7 68 8 228 3 125 -4 229 -9
231 -11 3 -3 7 -56 9 -119 4 -115 5 -115 31 -122 14 -3 72 -48 128 -100 56
-51 104 -93 105 -93 2 0 2 111 0 247 -3 214 -5 249 -19 258 -9 6 -56 43 -104
83 l-88 72 -319 0 -319 0 -32 -36 -33 -35 -41 33 c-23 19 -100 76 -172 128
-305 220 -371 270 -392 294 -13 14 -29 26 -36 26 -7 0 -29 16 -47 35 -19 20
-54 47 -77 61 -37 21 -43 29 -43 59 l0 34 100 -5 101 -4 145 -117z m3181 65
c-3 -8 -6 -5 -6 6 -1 11 2 17 5 13 3 -3 4 -12 1 -19z m91 -53 c-3 -3 -9 2 -12
12 -6 14 -5 15 5 6 7 -7 10 -15 7 -18z m-4984 -43 c35 -49 99 -105 276 -242
201 -156 161 -140 347 -140 89 0 173 -4 187 -9 13 -6 95 -67 181 -136 86 -69
175 -138 198 -153 23 -15 80 -54 127 -87 79 -57 188 -134 585 -415 88 -62 207
-150 265 -194 58 -45 117 -90 133 -99 21 -14 27 -25 27 -55 0 -20 16 -134 35
-252 20 -118 47 -314 60 -435 14 -121 27 -243 30 -272 6 -47 10 -55 43 -74 20
-13 84 -63 142 -112 57 -49 121 -101 142 -115 l38 -25 0 -303 0 -304 -123 0
-124 0 -6 143 c-4 78 -7 199 -7 268 0 115 -2 127 -19 135 -38 18 -166 120
-245 197 -73 70 -79 79 -63 88 21 12 21 -8 -4 329 -8 112 -68 644 -73 645 0 1
-46 35 -101 76 -156 117 -514 376 -730 529 -91 64 -282 202 -509 368 l-85 63
-193 -1 c-167 -2 -193 0 -196 14 -2 8 -29 32 -60 54 -69 46 -185 129 -271 194
-35 26 -69 48 -76 48 -40 0 -249 -574 -277 -760 -25 -173 -115 -234 -177 -121
l-24 44 17 81 c72 356 138 547 305 883 85 172 105 195 165 190 22 -1 37 -13
60 -45z m4876 -3 c0 -6 -4 -7 -10 -4 -5 3 -10 11 -10 16 0 6 5 7 10 4 6 -3 10
-11 10 -16z m156 -22 c11 -24 11 -27 1 -15 -8 10 -18 14 -22 10 -5 -4 -5 -1
-1 6 4 7 2 20 -6 29 -9 12 -10 15 0 9 6 -4 19 -22 28 -39z m-146 -12 c0 -8 -2
-15 -4 -15 -2 0 -6 7 -10 15 -3 8 -1 15 4 15 6 0 10 -7 10 -15z m188 -70 c-3
-3 -9 2 -12 12 -6 14 -5 15 5 6 7 -7 10 -15 7 -18z m-641 -47 c-3 -8 -6 -5 -6
6 -1 11 2 17 5 13 3 -3 4 -12 1 -19z m553 -142 c0 -5 -7 -1 -15 10 -8 10 -14
24 -14 29 0 6 6 1 14 -9 8 -11 15 -24 15 -30z m41 21 c-10 -9 -11 -8 -5 6 3
10 9 15 12 12 3 -3 0 -11 -7 -18z m-13 -92 c-3 -3 -9 2 -12 12 -6 14 -5 15 5
6 7 -7 10 -15 7 -18z m20 -40 c-3 -3 -9 2 -12 12 -6 14 -5 15 5 6 7 -7 10 -15
7 -18z m-79 -5 l64 0 -6 -40 c-3 -22 -12 -47 -21 -55 -9 -9 -16 -24 -15 -33 0
-14 2 -13 9 3 6 14 9 -2 9 -52 l1 -71 -102 -7 c-57 -4 -134 -5 -172 -3 l-69 3
-23 95 c-13 52 -24 113 -24 134 l0 39 143 -6 c78 -4 171 -7 206 -7z m-535
-500 c15 -85 32 -170 37 -187 l11 -33 129 0 c108 0 129 -2 129 -15 0 -8 -46
-64 -102 -125 l-103 -110 -121 0 -121 0 -6 43 c-3 23 -15 98 -26 167 -11 69
-25 175 -31 235 -6 61 -13 126 -15 145 -3 24 0 21 8 -13 7 -27 16 -45 20 -41
4 4 7 1 7 -7 0 -9 6 -23 13 -33 12 -16 16 -15 77 8 l65 24 -3 54 c-6 87 4 52
32 -112z m-3884 73 c119 -97 252 -197 356 -269 71 -48 194 -135 274 -193 154
-111 277 -197 455 -321 152 -104 268 -190 281 -206 6 -8 12 -47 12 -87 1 -90
21 -347 27 -357 3 -5 23 -6 45 -3 l40 6 0 -86 0 -86 -32 -3 c-31 -3 -33 -5
-31 -38 1 -23 10 -41 26 -55 13 -11 72 -60 131 -110 59 -49 123 -103 144 -120
l37 -30 0 -307 c0 -299 -1 -307 -20 -312 -11 -3 -74 -6 -141 -6 l-121 0 -6
167 c-4 91 -7 226 -7 298 l0 132 -37 25 c-21 14 -84 64 -140 110 l-103 85 -4
339 c-2 186 -7 347 -11 357 -4 9 -13 17 -20 17 -7 0 -60 35 -117 78 -58 42
-160 115 -228 162 -68 47 -178 125 -244 174 -67 50 -165 120 -218 157 -108 75
-181 128 -334 240 -56 42 -105 75 -107 72 -3 -2 -143 -7 -312 -10 l-308 -6 8
94 c4 52 8 96 10 99 2 3 155 5 342 5 250 0 342 -3 353 -12z m3760 -37 c0 -2
-7 -6 -15 -10 -8 -3 -15 -1 -15 4 0 6 7 10 15 10 8 0 15 -2 15 -4z m944 -26
c4 0 5 3 3 8 -3 4 6 7 19 7 l24 0 -23 -17 c-29 -23 -32 -23 -46 10 -10 23 -10
25 2 10 8 -10 17 -18 21 -18z m-4780 -416 c6 -5 45 -36 86 -66 41 -31 100 -76
130 -99 30 -24 91 -68 135 -99 110 -75 480 -339 585 -416 47 -34 97 -68 111
-74 25 -11 27 -18 35 -111 9 -94 8 -101 -11 -119 -20 -18 -21 -18 -46 3 -15
12 -89 65 -164 117 -76 52 -192 134 -259 182 -67 48 -157 112 -201 143 -44 30
-118 85 -165 123 -46 37 -120 93 -164 125 -45 33 -92 70 -106 83 l-26 24 -319
2 -320 3 4 90 c2 50 5 94 8 99 8 12 674 3 687 -10z m-885 -318 c45 -24 49 -36
61 -156 23 -249 63 -432 143 -665 85 -246 144 -367 298 -608 167 -263 283
-401 479 -570 221 -191 395 -306 645 -430 333 -165 522 -217 949 -262 479 -51
1014 34 1457 230 56 25 103 45 104 45 1 0 -1 -18 -5 -39 -7 -39 -51 -123 -78
-150 -7 -8 -11 -22 -9 -32 4 -13 -8 -23 -52 -42 -96 -43 -269 -94 -441 -131
-324 -69 -333 -70 -700 -70 -295 0 -351 3 -467 22 -436 71 -840 235 -1248 505
-164 109 -415 337 -558 507 -89 107 -256 354 -340 505 -66 119 -151 319 -200
471 -82 254 -157 626 -157 779 0 57 3 66 26 84 31 25 55 26 93 7z m782 -85
c54 -25 120 -85 142 -127 84 -164 -11 -378 -191 -430 -203 -59 -392 86 -392
302 0 131 79 234 208 271 65 18 177 10 233 -16z m5056 -158 c-3 -10 -5 -4 -5
12 0 17 2 24 5 18 2 -7 2 -21 0 -30z m-42 -258 c-33 -163 -39 -175 -82 -175
-42 0 -103 25 -103 42 0 7 7 63 17 123 16 110 16 111 42 107 14 -1 53 3 86 11
33 8 61 14 62 13 1 -1 -9 -55 -22 -121z m-4550 -60 c44 -34 103 -77 130 -95
28 -18 120 -85 205 -149 85 -63 178 -131 205 -151 236 -171 287 -209 337 -254
l58 -51 0 -492 0 -492 -137 -3 c-76 -2 -144 -1 -150 1 -10 2 -13 107 -13 480
l0 476 -116 85 c-64 47 -151 112 -193 144 -41 33 -114 87 -161 120 -113 81
-133 96 -153 126 -16 23 -17 5 -17 -379 l0 -404 204 5 204 6 4 -42 c3 -22 2
-107 0 -188 l-5 -147 -31 32 c-18 18 -60 59 -95 92 l-63 60 -159 -4 -159 -3 0
652 c0 518 3 650 13 644 6 -4 48 -35 92 -69z m3576 -237 c71 -33 125 -88 163
-168 27 -57 31 -75 31 -150 0 -74 -4 -92 -29 -140 -47 -92 -74 -120 -145 -154
-61 -28 -74 -31 -166 -31 -83 1 -109 5 -152 24 -104 46 -183 173 -183 293 0
87 32 185 77 238 95 111 271 149 404 88z m-3927 -89 c48 -38 28 -120 -34 -132
-87 -18 -145 69 -85 128 30 31 82 33 119 4z m-39 -299 l50 0 0 -98 c-1 -53 -2
-112 -3 -129 l-2 -33 -59 0 c-95 0 -91 -5 -91 134 0 68 3 126 7 130 4 4 17 5
28 2 11 -3 43 -6 70 -6z m4555 -60 c27 -14 73 -97 66 -116 -5 -14 -9 -12 -26
7 l-20 24 12 -28 c15 -35 2 -74 -57 -172 -23 -38 -50 -86 -60 -105 -23 -44
-43 -59 -77 -60 -27 0 -61 33 -73 70 -4 12 19 60 68 142 40 68 86 151 102 186
30 65 34 68 65 52z m-3889 -23 c44 -33 47 -92 8 -142 -35 -44 -105 -31 -134
25 -19 37 -19 60 3 86 36 42 90 56 123 31z m2692 -150 c24 -28 21 -61 -6 -93
-62 -71 -175 15 -117 89 33 41 89 43 123 4z m-621 -239 c3 -46 4 -86 1 -90 -2
-5 -49 -8 -104 -8 l-99 0 0 88 0 88 99 2 98 3 5 -83z m473 -86 c-3 -3 -11 0
-18 7 -9 10 -8 11 6 5 10 -3 15 -9 12 -12z m-1372 -324 c34 -29 76 -69 93 -88
51 -56 75 -65 115 -45 38 20 159 110 201 149 l27 26 461 0 460 0 0 -154 0
-154 -65 -4 -64 -3 -3 85 c-3 84 -3 85 -28 83 -14 -1 -155 -3 -315 -3 -337 -2
-298 8 -462 -128 -133 -110 -139 -114 -198 -103 -26 5 -63 5 -85 0 -40 -9 -40
-9 -167 96 -215 176 -212 172 -213 230 -1 28 -1 53 -1 58 1 4 42 7 92 7 l91 0
61 -52z m1957 -196 c0 -10 -6 -27 -14 -38 -13 -17 -13 -15 -3 19 13 41 17 46
17 19z"/>
<path d="M5290 5070 c0 -5 5 -10 11 -10 5 0 7 5 4 10 -3 6 -8 10 -11 10 -2 0
-4 -4 -4 -10z"/>
<path d="M5403 4934 c-12 -6 -7 -34 7 -34 4 0 10 9 13 20 5 20 2 22 -20 14z"/>
<path d="M5489 4902 c6 -12 16 -24 22 -28 8 -4 8 -1 0 14 -6 12 -16 24 -22 28
-8 4 -8 1 0 -14z"/>
<path d="M5343 4880 c-1 -11 2 -22 6 -24 4 -3 7 4 6 14 -2 27 -10 33 -12 10z"/>
<path d="M5391 4807 c-2 -16 37 -58 44 -47 3 5 1 10 -5 10 -7 0 -10 7 -7 15 4
8 1 17 -5 21 -7 4 -8 3 -4 -4 4 -7 3 -12 -3 -12 -5 0 -12 6 -14 13 -3 6 -6 8
-6 4z"/>
<path d="M5577 4781 c-4 -17 -3 -21 5 -13 5 5 8 16 6 23 -3 8 -7 3 -11 -10z"/>
<path d="M5487 4676 c-3 -8 5 -26 19 -41 26 -28 31 -41 13 -29 -7 4 -10 1 -7
-6 2 -8 10 -16 16 -18 21 -7 13 43 -9 56 -11 7 -18 19 -15 27 3 8 1 17 -3 20
-5 3 -11 -1 -14 -9z"/>
<path d="M5600 4461 c0 -6 4 -13 10 -16 6 -3 7 1 4 9 -7 18 -14 21 -14 7z"/>
<path d="M4840 4549 c0 -19 5 -41 10 -49 7 -10 8 -1 4 30 -8 56 -14 64 -14 19z"/>
<path d="M4822 4545 c0 -16 2 -22 5 -12 2 9 2 23 0 30 -3 6 -5 -1 -5 -18z"/>
<path d="M4974 4329 c-4 -7 -3 -9 4 -5 5 3 13 0 15 -6 4 -9 6 -10 6 -1 1 17
-16 25 -25 12z"/>
<path d="M2273 5323 c-56 -10 -82 -107 -48 -174 20 -37 52 -50 99 -39 41 9 62
30 71 73 20 86 -41 155 -122 140z"/>
<path d="M4111 1973 c-1 -6 -4 -20 -7 -30 -5 -17 -5 -17 6 0 6 10 9 23 6 30
-3 9 -5 9 -5 0z"/>
<path d="M5696 4155 c-3 -8 -3 -22 1 -31 5 -13 7 -13 14 -2 11 17 11 48 0 48
-5 0 -11 -7 -15 -15z"/>
<path d="M5675 4100 c3 -5 8 -10 11 -10 2 0 4 5 4 10 0 6 -5 10 -11 10 -5 0
-7 -4 -4 -10z"/>
<path d="M4941 3704 c0 -11 3 -14 6 -6 3 7 2 16 -1 19 -3 4 -6 -2 -5 -13z"/>
<path d="M915 2733 c-94 -20 -138 -100 -102 -185 19 -45 54 -69 110 -75 120
-14 195 122 116 211 -35 41 -80 59 -124 49z"/>
<path d="M4893 1999 c-76 -37 -103 -132 -62 -216 29 -60 83 -87 155 -80 41 4
52 3 48 -8 -3 -7 7 -43 23 -79 21 -49 32 -64 43 -60 8 4 20 7 27 7 6 0 9 6 6
14 -3 7 0 13 6 13 6 0 11 -5 11 -12 0 -6 2 -9 5 -7 7 8 -7 49 -15 44 -4 -2 -5
6 -3 19 3 13 -5 45 -17 73 -17 40 -19 55 -10 77 20 53 12 120 -19 163 -51 71
-122 90 -198 52z"/>
</g>
</svg>
